<svg xmlns="http://www.w3.org/2000/svg" xmlns:xlink="http://www.w3.org/1999/xlink" width="500" zoomAndPan="magnify" viewBox="0 0 375 374.999991" height="500" preserveAspectRatio="xMidYMid meet" version="1.0"><defs><g/><clipPath id="558e458099"><path d="M 44.757812 100.25 L 330.507812 100.25 L 330.507812 275 L 44.757812 275 Z M 44.757812 100.25 " clip-rule="nonzero"/></clipPath></defs><rect x="-37.5" width="450" fill="#ffffff" y="-37.499999" height="449.999989" fill-opacity="1"/><rect x="-37.5" width="450" fill="#ffffff" y="-37.499999" height="449.999989" fill-opacity="1"/><g clip-path="url(#558e458099)"><path fill="#1c1c1d" d="M 330.507812 100.296875 L 132.003906 100.296875 C 108.699219 100.296875 86.789062 109.378906 70.3125 125.867188 C 53.832031 142.355469 44.757812 164.277344 44.757812 187.59375 C 44.757812 210.910156 53.832031 232.832031 70.3125 249.320312 C 86.789062 265.808594 108.699219 274.890625 132.003906 274.890625 L 157.703125 274.890625 L 174.28125 238.792969 L 132.003906 238.792969 C 103.785156 238.792969 80.828125 215.824219 80.828125 187.59375 C 80.828125 159.359375 103.785156 136.390625 132.003906 136.390625 L 212.113281 136.390625 L 212.113281 241.660156 L 246.535156 136.390625 L 313.933594 136.390625 L 330.507812 100.296875 " fill-opacity="1" fill-rule="nonzero"/></g><path fill="#ed1c24" d="M 212.113281 274.890625 L 248.1875 274.890625 L 248.1875 166.902344 Z M 212.113281 274.890625 " fill-opacity="1" fill-rule="nonzero"/><g fill="#000000" fill-opacity="1"><g transform="translate(251.777723, 247.436235)"><g><path d="M 12.28125 -3.234375 C 13.238281 -3.234375 14.148438 -3.421875 15.015625 -3.796875 C 15.890625 -4.171875 16.640625 -4.671875 17.265625 -5.296875 L 19.75 -2.78125 C 18.800781 -1.832031 17.6875 -1.082031 16.40625 -0.53125 C 15.125 0.0195312 13.75 0.296875 12.28125 0.296875 C 10.820312 0.296875 9.445312 0.046875 8.15625 -0.453125 C 6.875 -0.953125 5.75 -1.679688 4.78125 -2.640625 C 3.8125 -3.597656 3.046875 -4.75 2.484375 -6.09375 C 1.929688 -7.4375 1.65625 -8.929688 1.65625 -10.578125 C 1.65625 -12.710938 2.109375 -14.597656 3.015625 -16.234375 C 3.929688 -17.867188 5.1875 -19.148438 6.78125 -20.078125 C 8.382812 -21.003906 10.21875 -21.46875 12.28125 -21.46875 C 13.75 -21.46875 15.125 -21.1875 16.40625 -20.625 C 17.6875 -20.070312 18.800781 -19.316406 19.75 -18.359375 L 17.265625 -15.875 C 16.640625 -16.519531 15.890625 -17.019531 15.015625 -17.375 C 14.148438 -17.738281 13.238281 -17.921875 12.28125 -17.921875 C 10.820312 -17.921875 9.566406 -17.601562 8.515625 -16.96875 C 7.472656 -16.34375 6.671875 -15.476562 6.109375 -14.375 C 5.546875 -13.28125 5.265625 -12.015625 5.265625 -10.578125 C 5.265625 -9.066406 5.578125 -7.757812 6.203125 -6.65625 C 6.828125 -5.5625 7.671875 -4.71875 8.734375 -4.125 C 9.804688 -3.53125 10.988281 -3.234375 12.28125 -3.234375 Z M 12.28125 -3.234375 "/></g></g></g><g fill="#000000" fill-opacity="1"><g transform="translate(272.760395, 247.436235)"><g><path d="M 12 -21.640625 C 13.738281 -21.640625 15.253906 -21.332031 16.546875 -20.71875 C 17.847656 -20.101562 18.929688 -19.28125 19.796875 -18.25 C 20.671875 -17.226562 21.328125 -16.070312 21.765625 -14.78125 C 22.210938 -13.488281 22.4375 -12.15625 22.4375 -10.78125 C 22.4375 -9.414062 22.21875 -8.085938 21.78125 -6.796875 C 21.351562 -5.515625 20.703125 -4.359375 19.828125 -3.328125 C 18.960938 -2.296875 17.875 -1.472656 16.5625 -0.859375 C 15.257812 -0.242188 13.738281 0.0625 12 0.0625 C 10.25 0.0625 8.722656 -0.242188 7.421875 -0.859375 C 6.117188 -1.472656 5.03125 -2.296875 4.15625 -3.328125 C 3.28125 -4.359375 2.625 -5.515625 2.1875 -6.796875 C 1.757812 -8.085938 1.546875 -9.414062 1.546875 -10.78125 C 1.546875 -12.15625 1.757812 -13.488281 2.1875 -14.78125 C 2.625 -16.070312 3.28125 -17.226562 4.15625 -18.25 C 5.03125 -19.28125 6.125 -20.101562 7.4375 -20.71875 C 8.75 -21.332031 10.269531 -21.640625 12 -21.640625 Z M 12 -3.359375 C 13.3125 -3.359375 14.4375 -3.625 15.375 -4.15625 C 16.3125 -4.6875 17.054688 -5.394531 17.609375 -6.28125 C 18.160156 -7.175781 18.53125 -8.148438 18.71875 -9.203125 C 18.914062 -10.265625 18.914062 -11.316406 18.71875 -12.359375 C 18.53125 -13.410156 18.160156 -14.378906 17.609375 -15.265625 C 17.054688 -16.148438 16.3125 -16.859375 15.375 -17.390625 C 14.4375 -17.929688 13.3125 -18.203125 12 -18.203125 C 10.6875 -18.203125 9.566406 -17.929688 8.640625 -17.390625 C 7.710938 -16.859375 6.96875 -16.148438 6.40625 -15.265625 C 5.84375 -14.378906 5.460938 -13.410156 5.265625 -12.359375 C 5.078125 -11.316406 5.078125 -10.265625 5.265625 -9.203125 C 5.460938 -8.148438 5.835938 -7.175781 6.390625 -6.28125 C 6.941406 -5.394531 7.6875 -4.6875 8.625 -4.15625 C 9.5625 -3.625 10.6875 -3.359375 12 -3.359375 Z M 12 -3.359375 "/></g></g></g><g fill="#000000" fill-opacity="1"><g transform="translate(296.85721, 247.436235)"><g><path d="M 25.3125 0 L 21.765625 0 L 21.765625 -13 L 15.6875 0 L 12.359375 0 L 5.890625 -13.265625 L 5.890625 0 L 2.359375 0 L 2.359375 -21.1875 L 5.953125 -21.1875 L 14 -4.71875 L 21.703125 -21.1875 L 25.3125 -21.1875 Z M 25.3125 0 "/></g></g></g><g fill="#000000" fill-opacity="1"><g transform="translate(251.508188, 271.436233)"><g><path d="M 13 -17.921875 L 8.5625 -17.921875 L 8.5625 0 L 5.046875 0 L 5.046875 -17.921875 L 0.609375 -17.921875 L 0.609375 -21.15625 L 13 -21.15625 Z M 13 -17.921875 "/></g></g></g><g fill="#000000" fill-opacity="1"><g transform="translate(265.053197, 271.436233)"><g><path d="M 5.921875 -17.625 L 5.921875 -12.328125 L 14.71875 -12.328125 L 14.71875 -8.828125 L 5.921875 -8.828125 L 5.921875 -3.53125 L 16.515625 -3.53125 L 16.515625 0 L 2.390625 0 L 2.390625 -21.15625 L 16.515625 -21.15625 L 16.515625 -17.625 Z M 5.921875 -17.625 "/></g></g></g><g fill="#000000" fill-opacity="1"><g transform="translate(282.83102, 271.436233)"><g><path d="M 12.28125 -3.234375 C 13.238281 -3.234375 14.148438 -3.421875 15.015625 -3.796875 C 15.890625 -4.171875 16.640625 -4.671875 17.265625 -5.296875 L 19.75 -2.78125 C 18.800781 -1.832031 17.6875 -1.082031 16.40625 -0.53125 C 15.125 0.0195312 13.75 0.296875 12.28125 0.296875 C 10.820312 0.296875 9.445312 0.046875 8.15625 -0.453125 C 6.875 -0.953125 5.75 -1.679688 4.78125 -2.640625 C 3.8125 -3.597656 3.046875 -4.75 2.484375 -6.09375 C 1.929688 -7.4375 1.65625 -8.929688 1.65625 -10.578125 C 1.65625 -12.710938 2.109375 -14.597656 3.015625 -16.234375 C 3.929688 -17.867188 5.1875 -19.148438 6.78125 -20.078125 C 8.382812 -21.003906 10.21875 -21.46875 12.28125 -21.46875 C 13.75 -21.46875 15.125 -21.1875 16.40625 -20.625 C 17.6875 -20.070312 18.800781 -19.316406 19.75 -18.359375 L 17.265625 -15.875 C 16.640625 -16.519531 15.890625 -17.019531 15.015625 -17.375 C 14.148438 -17.738281 13.238281 -17.921875 12.28125 -17.921875 C 10.820312 -17.921875 9.566406 -17.601562 8.515625 -16.96875 C 7.472656 -16.34375 6.671875 -15.476562 6.109375 -14.375 C 5.546875 -13.28125 5.265625 -12.015625 5.265625 -10.578125 C 5.265625 -9.066406 5.578125 -7.757812 6.203125 -6.65625 C 6.828125 -5.5625 7.671875 -4.71875 8.734375 -4.125 C 9.804688 -3.53125 10.988281 -3.234375 12.28125 -3.234375 Z M 12.28125 -3.234375 "/></g></g></g><g fill="#000000" fill-opacity="1"><g transform="translate(303.813692, 271.436233)"><g><path d="M 18.328125 -21.15625 L 18.328125 0 L 14.78125 0 L 14.78125 -8.828125 L 5.984375 -8.828125 L 5.984375 0 L 2.453125 0 L 2.453125 -21.15625 L 5.984375 -21.15625 L 5.984375 -12.390625 L 14.78125 -12.390625 L 14.78125 -21.15625 Z M 18.328125 -21.15625 "/></g></g></g></svg>